<svg xmlns="http://www.w3.org/2000/svg" xmlns:xlink="http://www.w3.org/1999/xlink" width="500" zoomAndPan="magnify" viewBox="0 0 375 374.999991" height="500" preserveAspectRatio="xMidYMid meet" version="1.0"><defs><g/></defs><g fill="#24c8a6" fill-opacity="1"><g transform="translate(40.950921, 257.080735)"><g><path d="M 110.28125 -20.859375 C 110.28125 -16.347656 110.007812 -12.738281 109.46875 -10.03125 C 108.925781 -7.320312 107.929688 -5.195312 106.484375 -3.65625 C 105.046875 -2.125 102.96875 -1.128906 100.25 -0.671875 C 97.539062 -0.222656 93.929688 0 89.421875 0 L 31.703125 0 C 27.367188 0 23.800781 -0.269531 21 -0.8125 C 18.195312 -1.351562 16.070312 -2.347656 14.625 -3.796875 C 13.1875 -5.242188 12.195312 -7.363281 11.65625 -10.15625 C 11.113281 -12.957031 10.84375 -16.523438 10.84375 -20.859375 L 10.84375 -55.546875 C 10.84375 -60.242188 11.066406 -63.992188 11.515625 -66.796875 C 11.960938 -69.597656 12.953125 -71.765625 14.484375 -73.296875 C 16.023438 -74.828125 18.148438 -75.816406 20.859375 -76.265625 C 23.566406 -76.722656 27.179688 -76.953125 31.703125 -76.953125 L 76.140625 -76.953125 C 79.210938 -76.953125 81.695312 -77.128906 83.59375 -77.484375 C 85.488281 -77.847656 86.929688 -78.523438 87.921875 -79.515625 C 88.921875 -80.515625 89.597656 -81.960938 89.953125 -83.859375 C 90.316406 -85.753906 90.5 -88.238281 90.5 -91.3125 L 90.5 -93.75 C 90.5 -96.820312 90.363281 -99.304688 90.09375 -101.203125 C 89.820312 -103.097656 89.1875 -104.539062 88.1875 -105.53125 C 87.195312 -106.53125 85.753906 -107.164062 83.859375 -107.4375 C 81.960938 -107.707031 79.390625 -107.84375 76.140625 -107.84375 L 43.625 -107.84375 C 39.113281 -107.84375 36 -107.390625 34.28125 -106.484375 C 32.5625 -105.585938 31.519531 -103.601562 31.15625 -100.53125 L 30.625 -96.734375 C 29.71875 -90.773438 26.460938 -87.796875 20.859375 -87.796875 C 17.066406 -87.796875 14.445312 -88.878906 13 -91.046875 C 11.5625 -93.210938 10.84375 -97.1875 10.84375 -102.96875 L 10.84375 -106.21875 C 10.84375 -110.914062 11.066406 -114.664062 11.515625 -117.46875 C 11.960938 -120.269531 12.953125 -122.4375 14.484375 -123.96875 C 16.023438 -125.5 18.148438 -126.488281 20.859375 -126.9375 C 23.566406 -127.394531 27.179688 -127.625 31.703125 -127.625 L 89.6875 -127.625 C 94.207031 -127.625 97.820312 -127.394531 100.53125 -126.9375 C 103.238281 -126.488281 105.3125 -125.5 106.75 -123.96875 C 108.195312 -122.4375 109.144531 -120.269531 109.59375 -117.46875 C 110.050781 -114.664062 110.28125 -110.914062 110.28125 -106.21875 Z M 62.59375 -57.171875 C 56.445312 -57.171875 52.515625 -56.3125 50.796875 -54.59375 C 49.085938 -52.882812 48.234375 -48.957031 48.234375 -42.8125 L 48.234375 -34.140625 C 48.234375 -30.890625 48.367188 -28.316406 48.640625 -26.421875 C 48.910156 -24.523438 49.585938 -23.078125 50.671875 -22.078125 C 51.753906 -21.085938 53.242188 -20.457031 55.140625 -20.1875 C 57.035156 -19.914062 59.609375 -19.78125 62.859375 -19.78125 L 76.140625 -19.78125 C 79.210938 -19.78125 81.695312 -19.957031 83.59375 -20.3125 C 85.488281 -20.675781 86.929688 -21.351562 87.921875 -22.34375 C 88.921875 -23.34375 89.597656 -24.742188 89.953125 -26.546875 C 90.316406 -28.359375 90.5 -30.800781 90.5 -33.875 L 90.5 -42 C 90.5 -45.4375 90.363281 -48.144531 90.09375 -50.125 C 89.820312 -52.113281 89.1875 -53.648438 88.1875 -54.734375 C 87.195312 -55.816406 85.753906 -56.492188 83.859375 -56.765625 C 81.960938 -57.035156 79.390625 -57.171875 76.140625 -57.171875 Z M 62.59375 -57.171875 "/></g></g></g><g fill="#24c8a6" fill-opacity="1"><g transform="translate(170.19718, 257.080735)"><g><path d="M 132.234375 -127.625 C 136.742188 -127.625 140.351562 -127.394531 143.0625 -126.9375 C 145.78125 -126.488281 147.90625 -125.5 149.4375 -123.96875 C 150.976562 -122.4375 151.972656 -120.269531 152.421875 -117.46875 C 152.867188 -114.664062 153.09375 -110.914062 153.09375 -106.21875 L 153.09375 -16.796875 C 153.09375 -10.472656 152.367188 -6.09375 150.921875 -3.65625 C 149.484375 -1.21875 146.867188 0 143.078125 0 C 139.273438 0 136.695312 -1.171875 135.34375 -3.515625 C 133.988281 -5.867188 133.3125 -10.207031 133.3125 -16.53125 L 133.3125 -93.75 C 133.3125 -99.894531 132.453125 -103.820312 130.734375 -105.53125 C 129.023438 -107.25 125.097656 -108.109375 118.953125 -108.109375 L 106.21875 -108.109375 C 100.070312 -108.109375 96.140625 -107.25 94.421875 -105.53125 C 92.710938 -103.820312 91.859375 -99.894531 91.859375 -93.75 L 91.859375 -86.171875 C 91.859375 -81.835938 92.398438 -78.898438 93.484375 -77.359375 C 94.566406 -75.828125 97.003906 -74.609375 100.796875 -73.703125 C 104.585938 -72.617188 107.023438 -71.171875 108.109375 -69.359375 C 109.203125 -67.554688 109.75 -63.945312 109.75 -58.53125 L 109.75 -23.03125 C 109.75 -18.332031 109.519531 -14.492188 109.0625 -11.515625 C 108.613281 -8.535156 107.710938 -6.1875 106.359375 -4.46875 C 105.003906 -2.75 103.195312 -1.570312 100.9375 -0.9375 C 98.675781 -0.3125 95.648438 0 91.859375 0 C 86.078125 0 81.96875 -0.492188 79.53125 -1.484375 C 77.09375 -2.484375 75.238281 -4.425781 73.96875 -7.3125 C 73.25 -8.757812 72.753906 -10.519531 72.484375 -12.59375 C 72.210938 -14.675781 72.078125 -18.15625 72.078125 -23.03125 L 72.078125 -93.75 C 72.078125 -99.894531 71.265625 -103.820312 69.640625 -105.53125 C 68.015625 -107.25 64.128906 -108.109375 57.984375 -108.109375 L 45.25 -108.109375 C 39.101562 -108.109375 35.171875 -107.25 33.453125 -105.53125 C 31.742188 -103.820312 30.890625 -99.894531 30.890625 -93.75 L 30.890625 -86.171875 C 30.890625 -81.835938 31.429688 -78.898438 32.515625 -77.359375 C 33.597656 -75.828125 36.035156 -74.609375 39.828125 -73.703125 C 43.617188 -72.617188 46.054688 -71.171875 47.140625 -69.359375 C 48.234375 -67.554688 48.78125 -63.945312 48.78125 -58.53125 L 48.78125 -23.03125 C 48.78125 -18.332031 48.550781 -14.492188 48.09375 -11.515625 C 47.644531 -8.535156 46.742188 -6.1875 45.390625 -4.46875 C 44.035156 -2.75 42.179688 -1.570312 39.828125 -0.9375 C 37.484375 -0.3125 34.414062 0 30.625 0 C 24.84375 0 20.726562 -0.492188 18.28125 -1.484375 C 15.84375 -2.484375 13.90625 -4.425781 12.46875 -7.3125 C 11.738281 -8.757812 11.285156 -10.519531 11.109375 -12.59375 C 10.929688 -14.675781 10.84375 -18.15625 10.84375 -23.03125 L 10.84375 -106.21875 C 10.84375 -110.914062 11.066406 -114.664062 11.515625 -117.46875 C 11.960938 -120.269531 12.953125 -122.4375 14.484375 -123.96875 C 16.023438 -125.5 18.148438 -126.488281 20.859375 -126.9375 C 23.566406 -127.394531 27.179688 -127.625 31.703125 -127.625 Z M 132.234375 -127.625 "/></g></g></g></svg>